<svg width="30" height="30" viewBox="0 0 30 30" fill="none" xmlns="http://www.w3.org/2000/svg">
<path d="M13.5937 24.125L5.34375 15.875C5.21875 15.75 5.13 15.6146 5.0775 15.4687C5.02583 15.3229 5 15.1666 5 15C5 14.8333 5.02583 14.6771 5.0775 14.5312C5.13 14.3854 5.21875 14.25 5.34375 14.125L13.5937 5.87498C13.8229 5.64581 14.1092 5.52581 14.4525 5.51498C14.7967 5.50498 15.0937 5.62498 15.3437 5.87498C15.5937 6.10415 15.7242 6.3904 15.735 6.73373C15.745 7.0779 15.625 7.37498 15.375 7.62498L9.25 13.75H23.2187C23.5729 13.75 23.87 13.8696 24.11 14.1087C24.3492 14.3487 24.4687 14.6458 24.4687 15C24.4687 15.3541 24.3492 15.6508 24.11 15.89C23.87 16.13 23.5729 16.25 23.2187 16.25H9.25L15.375 22.375C15.6042 22.6041 15.7242 22.8958 15.735 23.25C15.745 23.6041 15.625 23.8958 15.375 24.125C15.1458 24.375 14.8542 24.5 14.5 24.5C14.1458 24.5 13.8437 24.375 13.5937 24.125Z" fill="#F6F6F6"/>
</svg>
