<svg width="42" height="42" viewBox="0 0 42 42" fill="none" xmlns="http://www.w3.org/2000/svg">
<path d="M16.7121 30.7564C16.4788 30.7564 16.26 30.7197 16.0559 30.6462C15.8517 30.5739 15.6621 30.4502 15.4871 30.2752L7.9621 22.7502C7.64127 22.4294 7.48785 22.0134 7.50185 21.5024C7.51702 20.9926 7.68502 20.5773 8.00585 20.2564C8.32669 19.9356 8.73502 19.7752 9.23085 19.7752C9.72669 19.7752 10.135 19.9356 10.4559 20.2564L16.7121 26.5127L31.5434 11.6814C31.8642 11.3606 32.2801 11.2002 32.7911 11.2002C33.3009 11.2002 33.7163 11.3606 34.0371 11.6814C34.3579 12.0023 34.5184 12.4176 34.5184 12.9274C34.5184 13.4384 34.3579 13.8544 34.0371 14.1752L17.9371 30.2752C17.7621 30.4502 17.5725 30.5739 17.3684 30.6462C17.1642 30.7197 16.9454 30.7564 16.7121 30.7564Z" fill="#F6F6F6"/>
</svg>
