<svg width="16" height="16" viewBox="0 0 16 16" fill="none" xmlns="http://www.w3.org/2000/svg">
<path d="M7.99985 8.93337L4.73318 12.2C4.61096 12.3223 4.4554 12.3834 4.26652 12.3834C4.07763 12.3834 3.92207 12.3223 3.79985 12.2C3.67763 12.0778 3.61652 11.9223 3.61652 11.7334C3.61652 11.5445 3.67763 11.3889 3.79985 11.2667L7.06652 8.00003L3.79985 4.73337C3.67763 4.61114 3.61652 4.45559 3.61652 4.2667C3.61652 4.07781 3.67763 3.92225 3.79985 3.80003C3.92207 3.67781 4.07763 3.6167 4.26652 3.6167C4.4554 3.6167 4.61096 3.67781 4.73318 3.80003L7.99985 7.0667L11.2665 3.80003C11.3887 3.67781 11.5443 3.6167 11.7332 3.6167C11.9221 3.6167 12.0776 3.67781 12.1998 3.80003C12.3221 3.92225 12.3832 4.07781 12.3832 4.2667C12.3832 4.45559 12.3221 4.61114 12.1998 4.73337L8.93318 8.00003L12.1998 11.2667C12.3221 11.3889 12.3832 11.5445 12.3832 11.7334C12.3832 11.9223 12.3221 12.0778 12.1998 12.2C12.0776 12.3223 11.9221 12.3834 11.7332 12.3834C11.5443 12.3834 11.3887 12.3223 11.2665 12.2L7.99985 8.93337Z" fill="#1F2122"/>
</svg>
