<svg width="45" height="45" viewBox="0 0 45 45" fill="none" xmlns="http://www.w3.org/2000/svg">
<path d="M43.7679 19.0606L40.7166 19.6653C41.2571 22.3583 41.1913 25.137 40.5239 27.8016C39.8565 30.4663 38.6041 32.9507 36.8567 35.0764C35.1094 37.2021 32.9104 38.9162 30.4179 40.0955C27.9255 41.2749 25.2013 41.8902 22.4414 41.8972C19.6815 41.9042 16.9542 41.3028 14.4557 40.1361C11.9572 38.9694 9.74953 37.2665 7.99127 35.1497C6.23302 33.033 4.9679 30.5549 4.28684 27.8937C3.60577 25.2325 3.52569 22.4542 4.05233 19.7585C5.95849 9.9875 15.2717 3.49326 25.0832 4.93387L24.3964 6.8438L32.5097 5.87614L26.863 0L26.1591 1.96436C14.4888 -0.0653186 3.26337 7.56955 0.994949 19.1694C-0.107858 24.815 1.0883 30.6652 4.32033 35.4333C7.55235 40.2014 12.5555 43.4969 18.2294 44.5948C19.6156 44.863 21.0245 44.9987 22.4368 45C25.6572 44.9916 28.8358 44.2736 31.7442 42.8976C34.6526 41.5216 37.2187 39.5219 39.2581 37.0419C41.2974 34.5619 42.7595 31.6634 43.5393 28.5544C44.319 25.4454 44.3971 22.2031 43.7679 19.0606Z" fill="white"/>
<path d="M16.8388 29.1591C15.9903 29.1591 15.2346 29.0133 14.5718 28.7216C13.9127 28.4261 13.3918 28.0208 13.0093 27.5057C12.6305 26.9867 12.4354 26.3883 12.424 25.7102H14.9013C14.9165 25.9943 15.0093 26.2443 15.1797 26.4602C15.354 26.6723 15.585 26.8371 15.8729 26.9545C16.1608 27.072 16.4846 27.1307 16.8445 27.1307C17.2195 27.1307 17.5509 27.0644 17.8388 26.9318C18.1267 26.7992 18.3521 26.6155 18.5149 26.3807C18.6778 26.1458 18.7593 25.875 18.7593 25.5682C18.7593 25.2576 18.6721 24.983 18.4979 24.7443C18.3274 24.5019 18.0812 24.3125 17.7593 24.1761C17.4411 24.0398 17.0623 23.9716 16.6229 23.9716H15.5377V22.1648H16.6229C16.9941 22.1648 17.3218 22.1004 17.6058 21.9716C17.8937 21.8428 18.1172 21.6648 18.2763 21.4375C18.4354 21.2064 18.5149 20.9375 18.5149 20.6307C18.5149 20.339 18.4449 20.0833 18.3047 19.8636C18.1683 19.6402 17.9752 19.4659 17.7252 19.3409C17.479 19.2159 17.1911 19.1534 16.8615 19.1534C16.5282 19.1534 16.2233 19.214 15.9468 19.3352C15.6702 19.4527 15.4486 19.6212 15.282 19.8409C15.1153 20.0606 15.0263 20.3182 15.0149 20.6136H12.657C12.6683 19.9432 12.8596 19.3523 13.2308 18.8409C13.6021 18.3295 14.1021 17.9299 14.7308 17.642C15.3634 17.3504 16.0774 17.2045 16.8729 17.2045C17.6759 17.2045 18.3786 17.3504 18.9808 17.642C19.5831 17.9337 20.0509 18.3277 20.3843 18.8239C20.7214 19.3163 20.888 19.8693 20.8843 20.483C20.888 21.1345 20.6854 21.678 20.2763 22.1136C19.871 22.5492 19.3426 22.8258 18.6911 22.9432V23.0341C19.5471 23.1439 20.1986 23.4413 20.6456 23.9261C21.0964 24.4072 21.3199 25.0095 21.3161 25.733C21.3199 26.3958 21.1286 26.9848 20.7422 27.5C20.3596 28.0152 19.8312 28.4205 19.157 28.7159C18.4827 29.0114 17.71 29.1591 16.8388 29.1591ZM27.647 29.2557C26.6698 29.2519 25.8289 29.0114 25.1243 28.5341C24.4236 28.0568 23.8838 27.3655 23.505 26.4602C23.13 25.5549 22.9444 24.4659 22.9482 23.1932C22.9482 21.9242 23.1357 20.8428 23.5107 19.9489C23.8895 19.0549 24.4292 18.375 25.13 17.9091C25.8345 17.4394 26.6736 17.2045 27.647 17.2045C28.6205 17.2045 29.4576 17.4394 30.1584 17.9091C30.8629 18.3788 31.4046 19.0606 31.7834 19.9545C32.1622 20.8447 32.3497 21.9242 32.3459 23.1932C32.3459 24.4697 32.1565 25.5606 31.7777 26.4659C31.4027 27.3712 30.8648 28.0625 30.1641 28.5398C29.4633 29.017 28.6243 29.2557 27.647 29.2557ZM27.647 27.2159C28.3137 27.2159 28.8459 26.8807 29.2436 26.2102C29.6414 25.5398 29.8383 24.5341 29.8345 23.1932C29.8345 22.3106 29.7436 21.5758 29.5618 20.9886C29.3838 20.4015 29.13 19.9602 28.8004 19.6648C28.4747 19.3693 28.0902 19.2216 27.647 19.2216C26.9842 19.2216 26.4539 19.553 26.0561 20.2159C25.6584 20.8788 25.4576 21.8712 25.4539 23.1932C25.4539 24.0871 25.5429 24.8333 25.7209 25.4318C25.9027 26.0265 26.1584 26.4735 26.4879 26.7727C26.8175 27.0682 27.2039 27.2159 27.647 27.2159Z" fill="white"/>
</svg>
