<svg width="182" height="28" viewBox="0 0 182 28" fill="none" xmlns="http://www.w3.org/2000/svg">
<path d="M2.996 13.716C2.996 14.604 3.368 15.3 4.112 15.804C4.856 16.308 5.768 16.692 6.848 16.956C7.928 17.196 8.996 17.472 10.052 17.784C11.132 18.096 12.044 18.624 12.788 19.368C13.532 20.088 13.904 21.06 13.904 22.284C13.904 23.772 13.304 24.996 12.104 25.956C10.928 26.916 9.38 27.396 7.46 27.396C5.732 27.396 4.268 27.036 3.068 26.316C1.892 25.572 1.076 24.6 0.62 23.4L2.168 22.5C2.504 23.484 3.128 24.264 4.04 24.84C4.976 25.392 6.116 25.668 7.46 25.668C8.804 25.668 9.908 25.38 10.772 24.804C11.66 24.204 12.104 23.364 12.104 22.284C12.104 21.396 11.732 20.688 10.988 20.16C10.244 19.632 9.332 19.248 8.252 19.008C7.172 18.744 6.092 18.456 5.012 18.144C3.956 17.832 3.056 17.316 2.312 16.596C1.568 15.876 1.196 14.916 1.196 13.716C1.196 12.276 1.76 11.064 2.888 10.08C4.04 9.096 5.516 8.604 7.316 8.604C8.756 8.604 10.004 8.928 11.06 9.576C12.14 10.224 12.932 11.1 13.436 12.204L11.924 13.068C11.564 12.18 10.964 11.508 10.124 11.052C9.284 10.572 8.348 10.332 7.316 10.332C6.092 10.332 5.06 10.644 4.22 11.268C3.404 11.868 2.996 12.684 2.996 13.716ZM25.9769 27.396C23.3369 27.396 21.0929 26.496 19.2449 24.696C17.4209 22.872 16.5089 20.64 16.5089 18C16.5089 15.36 17.4209 13.14 19.2449 11.34C21.0929 9.516 23.3369 8.604 25.9769 8.604C28.5929 8.604 30.8129 9.516 32.6369 11.34C34.4849 13.14 35.4089 15.36 35.4089 18C35.4089 20.64 34.4849 22.872 32.6369 24.696C30.8129 26.496 28.5929 27.396 25.9769 27.396ZM20.5409 23.436C22.0289 24.924 23.8409 25.668 25.9769 25.668C28.1129 25.668 29.9129 24.924 31.3769 23.436C32.8409 21.948 33.5729 20.136 33.5729 18C33.5729 15.864 32.8409 14.052 31.3769 12.564C29.9129 11.076 28.1129 10.332 25.9769 10.332C23.8409 10.332 22.0289 11.076 20.5409 12.564C19.0769 14.052 18.3449 15.864 18.3449 18C18.3449 20.136 19.0769 21.948 20.5409 23.436ZM52.7008 9H54.5008V27H52.7008V23.58C51.4048 26.124 49.2568 27.396 46.2568 27.396C44.1208 27.396 42.4168 26.748 41.1448 25.452C39.8968 24.132 39.2728 22.38 39.2728 20.196V9H41.1088V20.196C41.1088 21.876 41.5648 23.208 42.4768 24.192C43.4128 25.176 44.7208 25.668 46.4008 25.668C48.2488 25.668 49.7608 25.056 50.9368 23.832C52.1128 22.608 52.7008 20.832 52.7008 18.504V9ZM68.3051 8.604C70.4411 8.604 72.1331 9.264 73.3811 10.584C74.6531 11.88 75.2891 13.62 75.2891 15.804V27H73.4531V15.804C73.4531 14.124 72.9851 12.792 72.0491 11.808C71.1371 10.824 69.8411 10.332 68.1611 10.332C66.3131 10.332 64.8011 10.944 63.6251 12.168C62.4491 13.392 61.8611 15.168 61.8611 17.496V27H60.0611V9H61.8611V12.42C63.1571 9.876 65.3051 8.604 68.3051 8.604ZM96.2574 1.8H98.0574V27H96.2574V22.824C95.5134 24.24 94.4574 25.356 93.0894 26.172C91.7454 26.988 90.2214 27.396 88.5174 27.396C85.9254 27.396 83.7174 26.496 81.8934 24.696C80.0934 22.872 79.1934 20.64 79.1934 18C79.1934 15.36 80.0934 13.14 81.8934 11.34C83.7174 9.516 85.9254 8.604 88.5174 8.604C90.2214 8.604 91.7454 9.012 93.0894 9.828C94.4574 10.644 95.5134 11.76 96.2574 13.176V1.8ZM83.1894 23.436C84.6774 24.924 86.4894 25.668 88.6254 25.668C90.7614 25.668 92.5614 24.924 94.0254 23.436C95.5134 21.948 96.2574 20.136 96.2574 18C96.2574 15.864 95.5134 14.052 94.0254 12.564C92.5614 11.076 90.7614 10.332 88.6254 10.332C86.4894 10.332 84.6774 11.076 83.1894 12.564C81.7254 14.052 80.9934 15.864 80.9934 18C80.9934 20.136 81.7254 21.948 83.1894 23.436ZM104.809 13.716C104.809 14.604 105.181 15.3 105.925 15.804C106.669 16.308 107.581 16.692 108.661 16.956C109.741 17.196 110.809 17.472 111.865 17.784C112.945 18.096 113.857 18.624 114.601 19.368C115.345 20.088 115.717 21.06 115.717 22.284C115.717 23.772 115.117 24.996 113.917 25.956C112.741 26.916 111.193 27.396 109.273 27.396C107.545 27.396 106.081 27.036 104.881 26.316C103.705 25.572 102.889 24.6 102.433 23.4L103.981 22.5C104.317 23.484 104.941 24.264 105.853 24.84C106.789 25.392 107.929 25.668 109.273 25.668C110.617 25.668 111.721 25.38 112.585 24.804C113.473 24.204 113.917 23.364 113.917 22.284C113.917 21.396 113.545 20.688 112.801 20.16C112.057 19.632 111.145 19.248 110.064 19.008C108.985 18.744 107.905 18.456 106.825 18.144C105.769 17.832 104.869 17.316 104.125 16.596C103.381 15.876 103.009 14.916 103.009 13.716C103.009 12.276 103.573 11.064 104.701 10.08C105.853 9.096 107.329 8.604 109.129 8.604C110.569 8.604 111.817 8.928 112.873 9.576C113.953 10.224 114.745 11.1 115.249 12.204L113.737 13.068C113.377 12.18 112.777 11.508 111.937 11.052C111.097 10.572 110.161 10.332 109.129 10.332C107.905 10.332 106.873 10.644 106.033 11.268C105.217 11.868 104.809 12.684 104.809 13.716ZM127.789 27.396C125.077 27.396 122.821 26.496 121.021 24.696C119.221 22.896 118.321 20.664 118.321 18C118.321 15.336 119.221 13.104 121.021 11.304C122.821 9.504 125.077 8.604 127.789 8.604C129.541 8.604 131.125 9.024 132.541 9.864C133.957 10.68 134.989 11.796 135.637 13.212L134.161 14.076C133.633 12.924 132.793 12.012 131.641 11.34C130.513 10.668 129.229 10.332 127.789 10.332C125.629 10.332 123.817 11.076 122.353 12.564C120.889 14.028 120.157 15.84 120.157 18C120.157 20.16 120.889 21.984 122.353 23.472C123.817 24.936 125.629 25.668 127.789 25.668C129.229 25.668 130.513 25.332 131.641 24.66C132.793 23.988 133.669 23.076 134.269 21.924L135.781 22.824C135.061 24.216 133.981 25.332 132.541 26.172C131.125 26.988 129.541 27.396 127.789 27.396ZM141.525 12.528C142.605 10.008 144.609 8.748 147.537 8.748V10.476C145.833 10.476 144.405 11.028 143.253 12.132C142.101 13.212 141.525 14.832 141.525 16.992V27H139.725V9H141.525V12.528ZM158.34 27.396C155.7 27.396 153.456 26.496 151.608 24.696C149.784 22.872 148.872 20.64 148.872 18C148.872 15.36 149.784 13.14 151.608 11.34C153.456 9.516 155.7 8.604 158.34 8.604C160.956 8.604 163.176 9.516 165 11.34C166.848 13.14 167.772 15.36 167.772 18C167.772 20.64 166.848 22.872 165 24.696C163.176 26.496 160.956 27.396 158.34 27.396ZM152.904 23.436C154.392 24.924 156.204 25.668 158.34 25.668C160.476 25.668 162.276 24.924 163.74 23.436C165.204 21.948 165.936 20.136 165.936 18C165.936 15.864 165.204 14.052 163.74 12.564C162.276 11.076 160.476 10.332 158.34 10.332C156.204 10.332 154.392 11.076 152.904 12.564C151.44 14.052 150.708 15.864 150.708 18C150.708 20.136 151.44 21.948 152.904 23.436ZM172.104 27V0.719999H173.904V27H172.104ZM179.452 27V0.719999H181.252V27H179.452Z" fill="#F6F6F6"/>
</svg>
