<svg width="26" height="19" viewBox="0 0 26 19" fill="none" xmlns="http://www.w3.org/2000/svg">
<path d="M22.2221 18.373C22.5514 18.606 23.0261 18.5128 23.2876 18.14C24.9829 15.7823 26 12.7908 26 9.5012C26 6.20224 24.9538 3.22945 23.2876 0.862399C23.0261 0.480316 22.5514 0.396444 22.2221 0.629422C21.8539 0.871718 21.8055 1.30972 22.0671 1.6918C23.5686 3.82587 24.5179 6.50977 24.5179 9.5012C24.5179 12.4833 23.5686 15.1859 22.0671 17.3106C21.8055 17.6927 21.8539 18.1307 22.2221 18.373ZM10.4426 17.73C11.082 17.73 11.5373 17.292 11.5373 16.6862V2.39073C11.5373 1.78499 11.082 1.29108 10.4232 1.29108C9.96796 1.29108 9.65797 1.47746 9.17362 1.9341L5.03726 5.66173C4.97914 5.71765 4.89195 5.74561 4.79508 5.74561H2.02459C0.707153 5.74561 0 6.44454 0 7.78649V11.2532C0 12.6045 0.707153 13.2941 2.02459 13.2941H4.79508C4.89195 13.2941 4.97914 13.322 5.03726 13.3779L9.17362 17.1429C9.60954 17.5529 9.98733 17.73 10.4426 17.73ZM18.5894 15.9034C18.9478 16.1364 19.3934 16.0525 19.655 15.6984C20.8949 14.0582 21.6215 11.803 21.6215 9.5012C21.6215 7.19939 20.9046 4.92553 19.655 3.304C19.3934 2.94988 18.9478 2.866 18.5894 3.09898C18.231 3.33196 18.1729 3.76996 18.4538 4.15204C19.5097 5.58718 20.12 7.51623 20.12 9.5012C20.12 11.4862 19.4903 13.3966 18.4538 14.8504C18.1826 15.2324 18.231 15.6704 18.5894 15.9034ZM14.9955 13.4711C15.3152 13.6855 15.7705 13.6202 16.032 13.2568C16.7779 12.3156 17.2235 10.927 17.2235 9.5012C17.2235 8.07538 16.7779 6.69615 16.032 5.74561C15.7705 5.38216 15.3152 5.30761 14.9955 5.53127C14.5984 5.7922 14.5402 6.25816 14.8405 6.64024C15.4024 7.38577 15.7221 8.42019 15.7221 9.5012C15.7221 10.5822 15.3927 11.6073 14.8405 12.3622C14.5499 12.7536 14.5984 13.2009 14.9955 13.4711Z" fill="#F6F6F6"/>
</svg>
