<svg width="12" height="19" viewBox="0 0 12 19" fill="none" xmlns="http://www.w3.org/2000/svg">
<path d="M10.8615 18.5C11.5264 18.5 12 18.0204 12 17.3571V1.70408C12 1.04082 11.5264 0.5 10.8413 0.5C10.3778 0.5 10.0554 0.704082 9.54156 1.20408L5.24937 5.28571C5.17884 5.34694 5.09824 5.37755 4.99748 5.37755H2.10579C0.745592 5.37755 0 6.14286 0 7.61224V11.4082C0 12.8878 0.745592 13.6429 2.10579 13.6429H4.99748C5.09824 13.6429 5.17884 13.6735 5.24937 13.7347L9.54156 17.8571C10.005 18.3061 10.398 18.5 10.8615 18.5Z" fill="#F6F6F6"/>
</svg>
