<svg width="37" height="36" viewBox="0 0 37 36" fill="none" xmlns="http://www.w3.org/2000/svg">
<path d="M18.5 22.7368C16.921 22.7368 15.5789 22.1842 14.4737 21.0789C13.3684 19.9737 12.8158 18.6316 12.8158 17.0526V5.68421C12.8158 4.10526 13.3684 2.76316 14.4737 1.65789C15.5789 0.552631 16.921 0 18.5 0C20.0789 0 21.421 0.552631 22.5263 1.65789C23.6316 2.76316 24.1842 4.10526 24.1842 5.68421V17.0526C24.1842 18.6316 23.6316 19.9737 22.5263 21.0789C21.421 22.1842 20.0789 22.7368 18.5 22.7368ZM16.6052 36V30.1737C13.321 29.7316 10.6052 28.2632 8.45787 25.7684C6.3105 23.2737 5.23682 20.3684 5.23682 17.0526H9.02629C9.02629 19.6737 9.94997 21.9079 11.7973 23.7553C13.6447 25.6026 15.8789 26.5263 18.5 26.5263C21.121 26.5263 23.3552 25.6026 25.2026 23.7553C27.05 21.9079 27.9737 19.6737 27.9737 17.0526H31.7631C31.7631 20.3684 30.6894 23.2737 28.5421 25.7684C26.3947 28.2632 23.6789 29.7316 20.3947 30.1737V36H16.6052Z" fill="white"/>
</svg>
