<svg width="45" height="45" viewBox="0 0 45 45" fill="none" xmlns="http://www.w3.org/2000/svg">
<path d="M1.23207 19.0606L4.28337 19.6653C3.7429 22.3583 3.80873 25.137 4.47612 27.8016C5.14352 30.4663 6.39591 32.9507 8.14328 35.0764C9.89064 37.2021 12.0896 38.9162 14.5821 40.0955C17.0745 41.2749 19.7987 41.8902 22.5586 41.8972C25.3185 41.9042 28.0458 41.3028 30.5443 40.1361C33.0428 38.9694 35.2505 37.2665 37.0087 35.1497C38.767 33.033 40.0321 30.5549 40.7132 27.8937C41.3942 25.2325 41.4743 22.4542 40.9477 19.7585C39.0415 9.9875 29.7283 3.49326 19.9168 4.93387L20.6036 6.8438L12.4903 5.87614L18.137 0L18.8409 1.96436C30.5112 -0.0653186 41.7366 7.56955 44.0051 19.1694C45.1079 24.815 43.9117 30.6652 40.6797 35.4333C37.4476 40.2014 32.4445 43.4969 26.7706 44.5948C25.3844 44.863 23.9755 44.9987 22.5632 45C19.3428 44.9916 16.1642 44.2736 13.2558 42.8976C10.3474 41.5216 7.78133 39.5219 5.74194 37.0419C3.70256 34.5619 2.24047 31.6634 1.46071 28.5544C0.68095 25.4454 0.602871 22.2031 1.23207 19.0606Z" fill="white"/>
<path d="M17.0561 29.1591C16.2076 29.1591 15.4519 29.0133 14.789 28.7216C14.1299 28.4261 13.6091 28.0208 13.2265 27.5057C12.8478 26.9867 12.6527 26.3883 12.6413 25.7102H15.1186C15.1337 25.9943 15.2265 26.2443 15.397 26.4602C15.5712 26.6723 15.8023 26.8371 16.0902 26.9545C16.3781 27.072 16.7019 27.1307 17.0618 27.1307C17.4368 27.1307 17.7682 27.0644 18.0561 26.9318C18.344 26.7992 18.5693 26.6155 18.7322 26.3807C18.8951 26.1458 18.9765 25.875 18.9765 25.5682C18.9765 25.2576 18.8894 24.983 18.7152 24.7443C18.5447 24.5019 18.2985 24.3125 17.9765 24.1761C17.6584 24.0398 17.2796 23.9716 16.8402 23.9716H15.7549V22.1648H16.8402C17.2114 22.1648 17.539 22.1004 17.8231 21.9716C18.111 21.8428 18.3345 21.6648 18.4936 21.4375C18.6527 21.2064 18.7322 20.9375 18.7322 20.6307C18.7322 20.339 18.6621 20.0833 18.522 19.8636C18.3856 19.6402 18.1924 19.4659 17.9424 19.3409C17.6962 19.2159 17.4084 19.1534 17.0788 19.1534C16.7455 19.1534 16.4406 19.214 16.164 19.3352C15.8875 19.4527 15.6659 19.6212 15.4993 19.8409C15.3326 20.0606 15.2436 20.3182 15.2322 20.6136H12.8743C12.8856 19.9432 13.0769 19.3523 13.4481 18.8409C13.8193 18.3295 14.3193 17.9299 14.9481 17.642C15.5807 17.3504 16.2947 17.2045 17.0902 17.2045C17.8932 17.2045 18.5959 17.3504 19.1981 17.642C19.8004 17.9337 20.2682 18.3277 20.6015 18.8239C20.9387 19.3163 21.1053 19.8693 21.1015 20.483C21.1053 21.1345 20.9027 21.678 20.4936 22.1136C20.0883 22.5492 19.5599 22.8258 18.9084 22.9432V23.0341C19.7644 23.1439 20.4159 23.4413 20.8629 23.9261C21.3137 24.4072 21.5371 25.0095 21.5334 25.733C21.5371 26.3958 21.3459 26.9848 20.9595 27.5C20.5769 28.0152 20.0485 28.4205 19.3743 28.7159C18.7 29.0114 17.9273 29.1591 17.0561 29.1591ZM27.8643 29.2557C26.8871 29.2519 26.0461 29.0114 25.3416 28.5341C24.6408 28.0568 24.1011 27.3655 23.7223 26.4602C23.3473 25.5549 23.1617 24.4659 23.1655 23.1932C23.1655 21.9242 23.353 20.8428 23.728 19.9489C24.1067 19.0549 24.6465 18.375 25.3473 17.9091C26.0518 17.4394 26.8908 17.2045 27.8643 17.2045C28.8378 17.2045 29.6749 17.4394 30.3757 17.9091C31.0802 18.3788 31.6219 19.0606 32.0007 19.9545C32.3795 20.8447 32.567 21.9242 32.5632 23.1932C32.5632 24.4697 32.3738 25.5606 31.995 26.4659C31.62 27.3712 31.0821 28.0625 30.3814 28.5398C29.6806 29.017 28.8416 29.2557 27.8643 29.2557ZM27.8643 27.2159C28.531 27.2159 29.0632 26.8807 29.4609 26.2102C29.8586 25.5398 30.0556 24.5341 30.0518 23.1932C30.0518 22.3106 29.9609 21.5758 29.7791 20.9886C29.6011 20.4015 29.3473 19.9602 29.0177 19.6648C28.692 19.3693 28.3075 19.2216 27.8643 19.2216C27.2014 19.2216 26.6711 19.553 26.2734 20.2159C25.8757 20.8788 25.6749 21.8712 25.6711 23.1932C25.6711 24.0871 25.7602 24.8333 25.9382 25.4318C26.12 26.0265 26.3757 26.4735 26.7052 26.7727C27.0348 27.0682 27.4211 27.2159 27.8643 27.2159Z" fill="white"/>
</svg>
