<svg width="30" height="30" viewBox="0 0 30 30" fill="none" xmlns="http://www.w3.org/2000/svg">
<path d="M15 18.2188C14.8333 18.2188 14.6771 18.1925 14.5312 18.14C14.3854 18.0883 14.25 18 14.125 17.875L9.625 13.375C9.39583 13.1458 9.28125 12.8542 9.28125 12.5C9.28125 12.1458 9.39583 11.8542 9.625 11.625C9.85417 11.3958 10.1508 11.2758 10.515 11.265C10.88 11.255 11.1771 11.3646 11.4062 11.5937L13.75 13.9375V5C13.75 4.64583 13.87 4.34875 14.11 4.10875C14.3492 3.86958 14.6458 3.75 15 3.75C15.3542 3.75 15.6513 3.86958 15.8913 4.10875C16.1304 4.34875 16.25 4.64583 16.25 5V13.9375L18.5938 11.5937C18.8229 11.3646 19.12 11.255 19.485 11.265C19.8492 11.2758 20.1458 11.3958 20.375 11.625C20.6042 11.8542 20.7188 12.1458 20.7188 12.5C20.7188 12.8542 20.6042 13.1458 20.375 13.375L15.875 17.875C15.75 18 15.6146 18.0883 15.4688 18.14C15.3229 18.1925 15.1667 18.2188 15 18.2188ZM7.5 23.75C6.8125 23.75 6.22417 23.5054 5.735 23.0163C5.245 22.5263 5 21.9375 5 21.25V18.75C5 18.3958 5.11958 18.0987 5.35875 17.8587C5.59875 17.6196 5.89583 17.5 6.25 17.5C6.60417 17.5 6.90125 17.6196 7.14125 17.8587C7.38042 18.0987 7.5 18.3958 7.5 18.75V21.25H22.5V18.75C22.5 18.3958 22.62 18.0987 22.86 17.8587C23.0992 17.6196 23.3958 17.5 23.75 17.5C24.1042 17.5 24.4008 17.6196 24.64 17.8587C24.88 18.0987 25 18.3958 25 18.75V21.25C25 21.9375 24.7554 22.5263 24.2663 23.0163C23.7763 23.5054 23.1875 23.75 22.5 23.75H7.5Z" fill="#F6F6F6"/>
</svg>
