<svg width="70" height="30" viewBox="0 0 70 30" fill="none" xmlns="http://www.w3.org/2000/svg">
<path d="M11.6373 24V21.2301L18.1092 15.2376C18.6597 14.7049 19.1213 14.2255 19.4942 13.7994C19.873 13.3732 20.16 12.956 20.3553 12.5476C20.5506 12.1333 20.6483 11.6864 20.6483 11.207C20.6483 10.6744 20.527 10.2157 20.2843 9.83097C20.0417 9.44034 19.7102 9.14145 19.29 8.9343C18.8698 8.72124 18.3933 8.6147 17.8607 8.6147C17.3043 8.6147 16.819 8.72715 16.4047 8.95206C15.9904 9.17696 15.6708 9.49953 15.4459 9.91974C15.221 10.34 15.1085 10.8401 15.1085 11.4201H11.4597C11.4597 10.2305 11.729 9.19768 12.2676 8.32173C12.8062 7.44579 13.5608 6.76811 14.5315 6.28871C15.5021 5.8093 16.6207 5.5696 17.8873 5.5696C19.1894 5.5696 20.3228 5.80043 21.2875 6.26207C22.2582 6.7178 23.0128 7.35109 23.5514 8.16193C24.0899 8.97277 24.3592 9.90199 24.3592 10.9496C24.3592 11.6361 24.2231 12.3138 23.9509 12.9826C23.6845 13.6514 23.2081 14.3942 22.5215 15.2109C21.835 16.0218 20.8673 16.9954 19.6185 18.1317L16.964 20.733V20.8572H24.5989V24H11.6373ZM29.6305 24.2308C29.0445 24.2308 28.5414 24.0237 28.1212 23.6094C27.7069 23.1892 27.4998 22.6861 27.4998 22.1001C27.4998 21.5201 27.7069 21.023 28.1212 20.6087C28.5414 20.1944 29.0445 19.9872 29.6305 19.9872C30.1986 19.9872 30.6958 20.1944 31.1219 20.6087C31.5481 21.023 31.7611 21.5201 31.7611 22.1001C31.7611 22.4908 31.6605 22.8488 31.4593 23.1744C31.264 23.494 31.0065 23.7514 30.6869 23.9467C30.3673 24.1361 30.0152 24.2308 29.6305 24.2308ZM41.2271 24.3995C39.7002 24.3936 38.3862 24.0178 37.2854 23.272C36.1904 22.5263 35.347 21.4461 34.7552 20.0316C34.1693 18.6171 33.8792 16.9155 33.8852 14.9268C33.8852 12.9441 34.1781 11.2544 34.7641 9.8576C35.3559 8.46082 36.1993 7.39844 37.2943 6.67045C38.3951 5.93655 39.7061 5.5696 41.2271 5.5696C42.7482 5.5696 44.0562 5.93655 45.1511 6.67045C46.252 7.40436 47.0984 8.4697 47.6902 9.86648C48.2821 11.2573 48.575 12.9441 48.5691 14.9268C48.5691 16.9214 48.2732 18.6259 47.6813 20.0405C47.0954 21.455 46.255 22.5352 45.16 23.2809C44.0651 24.0266 42.7541 24.3995 41.2271 24.3995ZM41.2271 21.2124C42.2688 21.2124 43.1004 20.6886 43.7218 19.641C44.3433 18.5934 44.651 17.022 44.6451 14.9268C44.6451 13.5478 44.5031 12.3996 44.219 11.4822C43.9408 10.5649 43.5443 9.87535 43.0293 9.41371C42.5203 8.95206 41.9196 8.72124 41.2271 8.72124C40.1914 8.72124 39.3628 9.23911 38.7413 10.2749C38.1199 11.3106 37.8062 12.8613 37.8003 14.9268C37.8003 16.3236 37.9394 17.4896 38.2176 18.4247C38.5016 19.3539 38.9011 20.0523 39.4161 20.5199C39.931 20.9815 40.5347 21.2124 41.2271 21.2124Z" fill="#F6F6F6"/>
<path d="M53.3949 11.7727L54.9972 14.8239L56.6392 11.7727H59.1222L56.5938 16.1364L59.1903 20.5H56.7188L54.9972 17.483L53.304 20.5H50.804L53.3949 16.1364L50.8949 11.7727H53.3949Z" fill="#F6F6F6"/>
</svg>
