<svg width="112" height="88" viewBox="0 0 112 88" fill="none" xmlns="http://www.w3.org/2000/svg">
<path d="M55.4074 0C58.7503 0 61.5055 2.51641 61.8821 5.75832L61.9259 6.51852V81.4815C61.9259 85.0816 59.0075 88 55.4074 88C52.0645 88 49.3093 85.4836 48.9328 82.2417L48.8889 81.4815V6.51852C48.8889 2.91844 51.8073 0 55.4074 0ZM29.3333 17.1437C32.6763 17.1437 35.4315 19.6601 35.808 22.902L35.8519 23.6622V64.403C35.8519 68.003 32.9334 70.9215 29.3333 70.9215C25.9904 70.9215 23.2352 68.4051 22.8587 65.1632L22.8148 64.403V23.6622C22.8148 20.0621 25.7333 17.1437 29.3333 17.1437ZM81.4815 17.1437C84.8244 17.1437 87.5796 19.6601 87.9561 22.902L88 23.6622V64.403C88 68.003 85.0816 70.9215 81.4815 70.9215C78.1386 70.9215 75.3834 68.4051 75.0068 65.1632L74.963 64.403V23.6622C74.963 20.0621 77.8814 17.1437 81.4815 17.1437ZM104.948 37.4815C108.548 37.4815 111.467 40.3999 111.467 44C111.467 47.6001 108.548 50.5185 104.948 50.5185C101.348 50.5185 98.4296 47.6001 98.4296 44C98.4296 40.3999 101.348 37.4815 104.948 37.4815ZM6.51852 37.4815C10.1186 37.4815 13.037 40.3999 13.037 44C13.037 47.6001 10.1186 50.5185 6.51852 50.5185C2.91844 50.5185 0 47.6001 0 44C0 40.3999 2.91844 37.4815 6.51852 37.4815Z" fill="black"/>
</svg>
